<svg width="625" height="419" viewBox="0 0 625 419" fill="none" xmlns="http://www.w3.org/2000/svg"><path opacity=".12" d="M121.5 311h-108C6.075 311 .067 317.075.067 324.5L0 405.5c0 7.425 6.075 13.5 13.5 13.5h108c7.425 0 13.5-6.075 13.5-13.5v-81c0-7.425-6.075-13.5-13.5-13.5zm0 27l-54 33.75-54-33.75v-13.5l54 33.75 54-33.75V338z" fill="#276ED8"/><g opacity=".12"><path d="M611.618 0h-99.236C504.992 0 499 5.975 499 13.35v202.322c0 7.432 6.055 13.35 13.382 13.35h99.236c7.388 0 13.382-5.973 13.382-13.35V13.35C625 5.91 618.937 0 611.618 0z" fill="#276ED8"/><path d="M618.515 18.194H505.489v192.633h113.026V18.194zm-33.212-6.054h-46.42a.971.971 0 01-.973-.97v-.474a.97.97 0 01.973-.97h46.42a.97.97 0 01.973.97v.474a.974.974 0 01-.973.97z" fill="#fff"/><path d="M618.515 199.434H505.489v11.395h113.026v-11.395zm0-181.24H505.489v10.222h113.026V18.194z" fill="#84B5FF"/></g><path opacity=".12" d="M78.575 4.848C40.685 14.136 17.47 52.681 25.346 84.82c3.125 12.748 14.014 27.453 14.014 27.453L34.9 153.52l37.662-24.675c12.362 3.441 27.175 3.425 41.151 0 37.891-9.288 56.95-45.582 49.074-77.714C154.911 19 116.466-4.439 78.575 4.848z" fill="#276ED8"/></svg>