<svg width="113" height="67" viewBox="0 0 113 67" fill="none" xmlns="http://www.w3.org/2000/svg"><path d="M85.93 12.729H70.48v15.364H41.946V12.729H26.49c-5.925 0-10.872 4.258-11.948 9.874v33.75c1.075 5.617 6.023 9.874 11.948 9.874h8.024l3.19-18.183h37.02l3.189 18.183h8.017c5.925 0 10.872-4.257 11.948-9.873v-33.75c-1.075-5.617-6.023-9.875-11.948-9.875z" fill="#276ED8"/><path d="M48.532 0h15.364v21.508H48.532V0z" fill="#06B25F"/><path d="M0 23.117h7.959v32.722H0V23.117zm104.464 0h7.957v32.722h-7.957V23.117z" fill="#276ED8"/><path d="M43.236 54.627l-2.036 11.6h30.03l-2.035-11.6h-25.96z" fill="#06B25F"/></svg>