<svg width="115" height="115" viewBox="0 0 115 115" fill="none" xmlns="http://www.w3.org/2000/svg"><path d="M84.877 0H32.125C28.196 0 25 3.244 25 7.23V12h67V7.23C92 3.244 88.804 0 84.877 0zM68.354 9.23H48.649c-1.088 0-1.97-.896-1.97-2s.882-2 1.97-2h19.705c1.087 0 1.97.896 1.97 2s-.883 2-1.97 2zm-8.474 92.353h-4.76c-.8 0-1.454.652-1.454 1.455v.926c0 .801.652 1.453 1.455 1.453h4.759c.801 0 1.453-.652 1.453-1.453v-.926a1.454 1.454 0 00-1.453-1.455zM92 15H25v77h67V15z" fill="#276ED8"/><path d="M73.075 56.596L78 55.669v-4.415l-4.925-.85a14.563 14.563 0 00-2.085-5.017l2.826-4.146-3.127-3.126-4.083 2.887a14.488 14.488 0 00-5.018-2.077L60.66 34h-4.415l-.85 4.925a14.562 14.562 0 00-5.017 2.085l-4.138-2.826-3.126 3.127 2.887 4.083a14.549 14.549 0 00-2.077 5.018L39 51.34v4.415l4.925.85a14.5 14.5 0 002.085 5.017l-2.826 4.138 3.127 3.126 4.091-2.887a14.402 14.402 0 005.018 2.077L56.346 73h4.416l.849-4.925a14.501 14.501 0 005.018-2.085l4.138 2.826 3.126-3.127-2.887-4.083a14.52 14.52 0 002.069-5.01zM58.5 62.648c-5.049 0-9.14-4.1-9.14-9.14 0-5.041 4.091-9.14 9.14-9.14a9.14 9.14 0 019.14 9.14 9.14 9.14 0 01-9.14 9.14z" fill="#66D6A0"/><path d="M25 96v12.131c0 3.787 3.196 6.869 7.123 6.869h52.753c3.928 0 7.124-3.082 7.124-6.869V96H25z" fill="#276ED8"/></svg>