<svg width="112" height="112" viewBox="0 0 112 112" fill="none" xmlns="http://www.w3.org/2000/svg"><g clip-path="url(#clip0)"><path d="M42 0C29.134 0 18.666 10.467 18.666 23.333 18.666 36.2 29.134 46.667 42 46.667s23.333-10.468 23.333-23.334S54.866 0 42 0z" fill="#276ED8"/><path d="M77.382 111.907a3.502 3.502 0 01-2.627-4.196l7-30.333c.439-1.88 2.32-3.07 4.196-2.623a3.502 3.502 0 012.627 4.196l-7 30.333c-.444 1.932-2.38 3.066-4.196 2.623zm19.452-4.574a3.511 3.511 0 01-2.605-1.157 3.505 3.505 0 01.262-4.947l8.778-7.896-8.778-7.896a3.504 3.504 0 01-.261-4.946 3.509 3.509 0 014.946-.262l11.667 10.5a3.508 3.508 0 010 5.208l-11.667 10.5a3.494 3.494 0 01-2.343.896zm-30.334 0c-.835 0-1.67-.294-2.343-.896l-11.666-10.5a3.508 3.508 0 010-5.208l11.666-10.5a3.513 3.513 0 014.947.262 3.504 3.504 0 01-.261 4.946l-8.778 7.896 8.778 7.896a3.505 3.505 0 01.261 4.947 3.511 3.511 0 01-2.604 1.157z" fill="#06B25F"/><path d="M43.167 93.333a12.86 12.86 0 014.232-9.524L59.08 73.295a12.816 12.816 0 018.582-3.29c2.627 0 5.166.83 7.299 2.3a12.748 12.748 0 017.648-6.402C78.63 59.939 71.853 56 64.167 56h-42C9.945 56 0 65.945 0 78.167v18.666c0 1.932 1.568 3.5 3.5 3.5h41.804c-1.353-2.072-2.137-4.489-2.137-7z" fill="#276ED8"/></g><defs><clipPath id="clip0"><path fill="#fff" d="M0 0h112v112H0z"/></clipPath></defs></svg>