<svg width="112" height="112" viewBox="0 0 112 112" fill="none" xmlns="http://www.w3.org/2000/svg"><g clip-path="url(#clip0)"><path d="M96.993 45.624a3.294 3.294 0 00-4.473 1.237 3.282 3.282 0 001.237 4.473c7.392 4.189 11.681 9.341 11.681 14.51 0 8.982-12.347 17.47-30.4 21.126a3.283 3.283 0 00-2.567 3.868 3.287 3.287 0 003.867 2.566C97.868 89.044 112 78.225 112 65.844c0-7.636-5.471-14.817-15.007-20.22zM39.594 94.088v11.131a3.28 3.28 0 005.101 2.73l19.688-13.125a3.282 3.282 0 000-5.46L44.695 76.239a3.28 3.28 0 00-5.101 2.73v8.404C20.409 84.086 6.562 75.357 6.562 65.843c0-5.168 4.289-10.32 11.681-14.509a3.282 3.282 0 001.237-4.473c-.89-1.57-2.887-2.121-4.473-1.237C5.47 51.027 0 58.208 0 65.844 0 79.21 15.932 90.358 39.594 94.088z" fill="#06B25F"/><path d="M82.25 16.237L57.467 3.846a3.285 3.285 0 00-2.935 0L29.749 16.238l26.25 13.124 26.25-13.125zm3.281 36.482V21.935L59.281 35.06v32.812l24.437-12.218a3.283 3.283 0 001.813-2.935zm-59.062 0c0 1.243.701 2.377 1.813 2.935L52.72 67.872V35.06L26.47 21.936v30.783z" fill="#276ED8"/></g><defs><clipPath id="clip0"><path fill="#fff" d="M0 0h112v112H0z"/></clipPath></defs></svg>