<svg width="86" height="86" viewBox="0 0 86 86" fill="none" xmlns="http://www.w3.org/2000/svg"><g clip-path="url(#clip0)"><circle cx="43" cy="61" r="18" fill="#DFECFC"/><path d="M43 48.408c-6.85 0-12.423 5.574-12.423 12.424S36.15 73.255 43 73.255s12.423-5.573 12.423-12.423S49.85 48.408 43 48.408zm-4.62 20.27V52.986l12.959 7.846-12.958 7.846z" fill="#06B25F"/><path d="M86 19.037c-.004-2.865-1.464-7.08-8.387-10.906-4.793-2.65-11.401-4.67-19.111-5.84l-2.899-.441v30.676c7.02-.781 13.436-2.216 18.724-4.224 6.896-2.62 11.18-6.04 11.673-9.265z" fill="#276ED8"/><path d="M43 38.247c-12.47 0-24.23-1.859-33.116-5.234C5.779 31.453 2.46 29.619 0 27.585v38.509c0 5.228 4.788 9.925 13.481 13.228 7.925 3.01 18.408 4.667 29.519 4.667 11.11 0 21.594-1.657 29.518-4.667C81.212 76.019 86 71.322 86 66.094V27.585c-2.461 2.034-5.779 3.868-9.884 5.428C67.23 36.388 55.47 38.247 43 38.247zm0 40.047c-9.629 0-17.462-7.834-17.462-17.463 0-9.629 7.833-17.462 17.462-17.462 9.63 0 17.463 7.833 17.463 17.462S52.629 78.294 43 78.294z" fill="#276ED8"/><path d="M11.673 28.302c5.285 2.007 11.698 3.442 18.714 4.222V1.848l-2.899.44c-7.709 1.17-14.316 3.19-19.107 5.841C1.463 11.957.004 16.172 0 19.037c.493 3.225 4.777 6.645 11.673 9.265z" fill="#276ED8"/></g><defs><clipPath id="clip0"><path fill="#fff" d="M0 0h86v86H0z"/></clipPath></defs></svg>