<svg width="107" height="108" viewBox="0 0 107 108" fill="none" xmlns="http://www.w3.org/2000/svg"><path d="M77.233 37.618c-9.525 0-13.285 6.567-15.281 11.324-1.536-3.112-4.743-5.257-8.44-5.257-3.698 0-6.904 2.145-8.44 5.257-1.997-4.757-5.755-11.324-15.282-11.324C7.822 37.618.024 81.976.024 90.945c0 11.872 6.661 16.084 12.366 16.084 10.034 0 20.826-17.153 26.033-25.72H68.6c5.202 8.561 16.034 25.72 26.033 25.72 5.704 0 12.366-4.212 12.366-16.084 0-3.771-5.878-53.327-29.767-53.327z" fill="#276ED8"/><path d="M31.541 64.541h3.135a3.136 3.136 0 000-6.27h-3.135v-3.136a3.136 3.136 0 00-6.27 0v3.136h-3.136a3.136 3.136 0 000 6.27h3.136v3.135a3.136 3.136 0 006.27 0v-3.135zm15.677 6.271h12.54a3.136 3.136 0 000-6.27h-12.54a3.136 3.136 0 000 6.27zm34.488-15.677a3.136 3.136 0 00-6.27 0 3.136 3.136 0 006.27 0zm-12.541 6.271a3.136 3.136 0 006.27 0 3.136 3.136 0 00-6.27 0zm6.27 6.27a3.136 3.136 0 006.27 0 3.136 3.136 0 00-6.27 0zm6.271-6.27a3.136 3.136 0 006.27 0 3.136 3.136 0 00-6.27 0z" fill="#66D6A0"/><path d="M56.903 37.78a15.97 15.97 0 00-6.304-.098c-.283-4.03-1.169-8.245-3.324-10.4-5.541-5.542-19.3-1.664-27.275-1.785C6.6 25.294-.176 17.73.003 8.17.04 6.256.15 4.262.766 2.23a3.136 3.136 0 016.007 1.798c-2.98 10.182 3.61 17.81 21.097 14.625 7.231-1.368 18.437-1.208 23.838 4.193 3.052 3.052 4.8 8.077 5.195 14.935z" fill="#276ED8"/></svg>