<svg width="94" height="94" viewBox="0 0 94 94" fill="none" xmlns="http://www.w3.org/2000/svg"><path d="M52.007 45.06a7.755 7.755 0 013.541-.847 7.74 7.74 0 015.494 2.268l3.165-3.164c7.83 2.745 16.888.987 23.148-5.273 5.268-5.267 7.345-12.514 6.236-19.346a2.03 2.03 0 00-3.44-1.112l-4.698 4.699c-3.826 3.826-10.03 3.826-13.857 0s-3.827-10.03 0-13.857l4.699-4.698A2.03 2.03 0 0075.183.29c-6.831-1.109-14.08.968-19.346 6.236-6.354 6.353-8.063 15.586-5.141 23.496l-6.863 6.863 8.174 8.175zM39.501 57.496l-8.14-8.14L2.896 77.821a9.478 9.478 0 000 13.403 9.478 9.478 0 0013.403 0l24.538-24.538c-2.474-2.488-2.92-6.245-1.336-9.19z" fill="#276ED8"/><path d="M57.656 49.896a2.972 2.972 0 00-2.108-.873c-.763 0-1.526.291-2.108.873l-1.7 1.7-30.269-30.27 1.415-1.415a2.982 2.982 0 00-.34-4.508l-12.35-9.096A2.981 2.981 0 006.32 6.6l-5.244 5.244a2.981 2.981 0 00-.292 3.876l9.095 12.35a2.982 2.982 0 004.509.34l1.415-1.415 30.269 30.27-1.819 1.818a2.981 2.981 0 000 4.217l27.924 27.924a9.477 9.477 0 0013.404 0 9.478 9.478 0 000-13.404L57.656 49.896z" fill="#06B25F"/></svg>