<svg width="160" height="24" viewBox="0 0 160 24" fill="none" xmlns="http://www.w3.org/2000/svg"><path d="M12 0l2.694 8.292h8.719l-7.054 5.124 2.694 8.292L12 16.584l-7.053 5.124 2.694-8.292L.587 8.292h8.719L12 0zm68 0l2.694 8.292h8.719l-7.054 5.124 2.694 8.292L80 16.584l-7.053 5.124 2.694-8.292-7.054-5.124h8.719L80 0zM46 0l2.694 8.292h8.719l-7.054 5.124 2.694 8.292L46 16.584l-7.053 5.124 2.694-8.292-7.054-5.124h8.719L46 0zm68 0l2.694 8.292h8.719l-7.054 5.124 2.694 8.292L114 16.584l-7.053 5.124 2.694-8.292-7.054-5.124h8.719L114 0z" fill="#06B25F"/><path d="M148 0l2.694 8.292h8.719l-7.054 5.124 2.694 8.292L148 16.584l-7.053 5.124 2.694-8.292-7.054-5.124h8.719L148 0z" fill="#E1E1E1"/></svg>