<svg width="451" height="438" viewBox="0 0 451 438" fill="none" xmlns="http://www.w3.org/2000/svg"><path opacity=".04" d="M243.112 354.206c-37.572 4.218-102.297-5.416-155.686-43.543-53.39-38.127-6.474-113.8 30.5-113.5 11.488.123-44.905-17.641-11.179-31.088 40.954-16.328 24.454-73.073 74.873-86.454 50.42-13.38 68.021 8.966 89.646 14.698 40.761 11.005 36.001-24.8 84.152 11.186 30.729 22.965 51.234 72.665 27.852 129.046-23.382 56.382-49.793 109.508-140.158 119.655z" fill="#276ED8"/><path d="M113.89 318C102.903 318 94 326.903 94 337.89c0 10.986 8.903 19.889 19.89 19.889 10.986 0 19.889-8.903 19.889-19.889 0-10.987-8.903-19.89-19.889-19.89zm0 34.823c-8.257 0-14.944-6.687-14.944-14.943s6.687-14.943 14.944-14.943c8.256 0 14.943 6.687 14.943 14.943s-6.687 14.943-14.943 14.943zm163.157-51.845h-27.785a1.987 1.987 0 110-3.976h27.785a1.987 1.987 0 110 3.976zm0 9.922h-27.785a1.988 1.988 0 110-3.976h27.785c1.094 0 1.988.884 1.988 1.988a1.993 1.993 0 01-1.988 1.988z" fill="#66D6A0"/><path opacity=".2" d="M117.951 218.795l17.049-3.23v-15.399l-17.049-2.961a50.973 50.973 0 00-7.215-17.498l9.781-14.456-10.823-10.903-14.136 10.068a49.961 49.961 0 00-17.37-7.241L74.983 140H59.697l-2.94 17.175a50.224 50.224 0 00-17.369 7.268l-14.323-9.852-10.822 10.902 9.994 14.241a50.941 50.941 0 00-7.188 17.498L0 200.462v15.399l17.049 2.961a50.778 50.778 0 007.215 17.498l-9.78 14.429 10.822 10.903 14.162-10.068c5.211 3.445 11.09 5.949 17.37 7.241L60.044 276H75.33l2.94-17.175a50.01 50.01 0 0017.37-7.268l14.322 9.852 10.823-10.902-9.994-14.241a50.831 50.831 0 007.161-17.471zM67.5 239.9c-17.476 0-31.639-14.294-31.639-31.873s14.163-31.873 31.639-31.873 31.639 14.267 31.639 31.873S84.976 239.9 67.5 239.9z" fill="#84B5FF"/><path d="M221 99.122v156.756c0 4.816 3.477 9.122 7.759 9.122h106.482c4.282 0 7.759-4.306 7.759-9.122V99.122c0-4.816-3.477-9.122-7.759-9.122h-106.49c-4.283.01-7.751 4.306-7.751 9.122zm114.35 161.005h-106.7c-1.587 0-2.872-1.444-2.872-3.229V98.102c0-1.785 1.285-3.23 2.872-3.23h106.7c1.587 0 2.872 1.445 2.872 3.23v158.796c0 1.785-1.285 3.229-2.872 3.229z" fill="#66D6A0"/><path d="M266.593 136.383c0 .979-.789 1.769-1.769 1.769-.98 0-1.769-.79-1.769-1.769 0-.98.789-1.77 1.769-1.77.97 0 1.769.79 1.769 1.77zM262 135.5c0 .831-.669 1.5-1.5 1.5s-1.5-.669-1.5-1.5.669-1.5 1.5-1.5 1.5.669 1.5 1.5z" fill="#84B5FF"/><path d="M299 147.28v142.106c0 3.654-2.974 6.614-6.645 6.614H74.645c-3.671 0-6.645-2.96-6.645-6.614V147.28c0-8.431 6.87-15.28 15.351-15.28H283.65c8.48 0 15.351 6.849 15.351 15.28z" fill="#fff" stroke="#84B5FF" stroke-miterlimit="10"/><path d="M299 146.396V147H68v-.604C68 138.453 74.87 132 83.351 132H283.65c8.48 0 15.351 6.453 15.351 14.396z" fill="#84B5FF"/><path d="M299.001 266v23.518c0 3.581-2.974 6.482-6.645 6.482H74.646c-3.671 0-6.645-2.901-6.645-6.482V266h231z" fill="#EDF1FF"/><path d="M299 147.28v142.106c0 3.654-2.974 6.614-6.645 6.614H74.645c-3.671 0-6.645-2.96-6.645-6.614V147.28c0-8.431 6.87-15.28 15.351-15.28H283.65c8.48 0 15.351 6.849 15.351 15.28z" stroke="#84B5FF" stroke-miterlimit="10"/><g filter="url(#filter0_d)"><rect x="201" y="208" width="110" height="110" rx="6" fill="#06B25F"/></g><path d="M246.593 294.7c-9.629-.056-17.593-19.711-17.593-29.721 0-16.35 12.266-19.93 16.993-19.93 2.131 0 4.405.836 6.412 1.577 1.403.516 2.854 1.049 3.661 1.049.483 0 1.621-.453 2.626-.851 2.144-.853 4.811-1.914 7.917-1.914h.018c2.319 0 9.351.509 13.578 6.858l.991 1.488-1.426 1.075c-2.036 1.536-5.75 4.339-5.75 9.89 0 6.574 4.207 9.102 6.228 10.319.892.536 1.816 1.09 1.816 2.3 0 .791-6.308 17.761-15.468 17.761-2.242 0-3.826-.673-5.224-1.267-1.414-.602-2.634-1.12-4.649-1.12-1.022 0-2.314.483-3.682.996-1.869.697-3.985 1.49-6.385 1.49h-.063zM267.58 230c.238 8.602-5.913 14.569-12.058 14.195C254.51 237.331 261.666 230 267.58 230z" fill="#fff"/><g filter="url(#filter1_d)"><rect x="88" y="165" width="65.68" height="64.547" rx="6" fill="#276ED8"/></g><path d="M110.357 207.948l-15.034-8.131c-.972-.563-1.458-1.432-1.458-2.609 0-1.227.512-2.096 1.534-2.608l14.958-8.207v2.991c0 .205-.076.486-.23.844a1.498 1.498 0 01-.69.69l-10.662 5.83c-.41.307-.41.614 0 .921l11.582 6.213v4.066zm12.807-24.01h2.991l-7.44 25.467c-.205.665-.665.997-1.381.997h-1.918l7.748-26.464zm7.82 2.455l14.958 8.207c1.074.563 1.611 1.432 1.611 2.608 0 1.177-.537 2.02-1.611 2.532l-14.958 8.208v-2.992c0-.153.051-.409.154-.767.153-.358.383-.614.69-.767l10.739-5.753c.409-.307.409-.614 0-.921l-11.583-6.29v-4.065z" fill="#fff"/><path d="M381.772 265.976h-27.784a1.987 1.987 0 110-3.976h27.784a1.987 1.987 0 110 3.976zm0 9.921h-27.784a1.987 1.987 0 110-3.976h27.784a1.987 1.987 0 110 3.976z" fill="#66D6A0"/><g filter="url(#filter2_d)"><path d="M187.918 84.08L196 82.56v-7.246l-8.082-1.394a23.897 23.897 0 00-3.421-8.234l4.637-6.803-5.131-5.13-6.701 4.737a23.783 23.783 0 00-8.235-3.408L167.547 47h-7.246l-1.394 8.082a23.896 23.896 0 00-8.234 3.42l-6.79-4.636-5.131 5.13 4.738 6.702a23.893 23.893 0 00-3.408 8.235L132 75.453v7.246l8.082 1.394a23.795 23.795 0 003.421 8.234l-4.637 6.79 5.131 5.131 6.714-4.738a23.637 23.637 0 008.234 3.408l1.521 8.082h7.246l1.393-8.082a23.805 23.805 0 008.235-3.42l6.79 4.636 5.13-5.13-4.737-6.702a23.854 23.854 0 003.395-8.222zM164 94.012c-8.285 0-14.999-6.727-14.999-15 0-8.272 6.714-14.999 14.999-14.999s14.999 6.715 14.999 15S172.285 94.012 164 94.012z" fill="#276ED8"/></g><g filter="url(#filter3_d)"><path d="M405.687 207.322l5.857 2.053 2.737-4.726-4.758-3.961a18.096 18.096 0 00.875-6.666l5.602-2.689-1.416-5.282-6.16.572a18.132 18.132 0 00-4.09-5.329l2.053-5.855-4.727-2.737-3.962 4.757a18.112 18.112 0 00-6.669-.875L388.34 171l-5.284 1.416.573 6.173a18.128 18.128 0 00-5.332 4.089l-5.857-2.053-2.737 4.726 4.759 3.961a18.076 18.076 0 00-.876 6.666L368 198.667l1.416 5.282 6.175-.572a17.886 17.886 0 004.091 5.329l-2.053 5.855 4.726 2.737 3.963-4.757a18.112 18.112 0 006.669.875l2.689 5.584 5.284-1.416-.573-6.173a17.63 17.63 0 005.3-4.089zm-19.369-2.529c-5.411-3.119-7.257-10.04-4.138-15.449 3.12-5.409 10.043-7.255 15.454-4.137 5.411 3.119 7.257 10.04 4.138 15.449-3.119 5.409-10.043 7.255-15.454 4.137z" fill="#84B5FF"/></g><defs><filter id="filter0_d" x="195" y="202" width="132" height="132" filterUnits="userSpaceOnUse" color-interpolation-filters="sRGB"><feFlood flood-opacity="0" result="BackgroundImageFix"/><feColorMatrix in="SourceAlpha" values="0 0 0 0 0 0 0 0 0 0 0 0 0 0 0 0 0 0 127 0" result="hardAlpha"/><feMorphology radius="3" operator="dilate" in="SourceAlpha" result="effect1_dropShadow"/><feOffset dx="5" dy="5"/><feGaussianBlur stdDeviation="4"/><feColorMatrix values="0 0 0 0 0 0 0 0 0 0 0 0 0 0 0 0 0 0 0.2 0"/><feBlend in2="BackgroundImageFix" result="effect1_dropShadow"/><feBlend in="SourceGraphic" in2="effect1_dropShadow" result="shape"/></filter><filter id="filter1_d" x="82" y="159" width="87.68" height="86.547" filterUnits="userSpaceOnUse" color-interpolation-filters="sRGB"><feFlood flood-opacity="0" result="BackgroundImageFix"/><feColorMatrix in="SourceAlpha" values="0 0 0 0 0 0 0 0 0 0 0 0 0 0 0 0 0 0 127 0" result="hardAlpha"/><feMorphology radius="3" operator="dilate" in="SourceAlpha" result="effect1_dropShadow"/><feOffset dx="5" dy="5"/><feGaussianBlur stdDeviation="4"/><feColorMatrix values="0 0 0 0 0 0 0 0 0 0 0 0 0 0 0 0 0 0 0.2 0"/><feBlend in2="BackgroundImageFix" result="effect1_dropShadow"/><feBlend in="SourceGraphic" in2="effect1_dropShadow" result="shape"/></filter><filter id="filter2_d" x="122" y="41" width="84" height="84" filterUnits="userSpaceOnUse" color-interpolation-filters="sRGB"><feFlood flood-opacity="0" result="BackgroundImageFix"/><feColorMatrix in="SourceAlpha" values="0 0 0 0 0 0 0 0 0 0 0 0 0 0 0 0 0 0 127 0" result="hardAlpha"/><feOffset dy="4"/><feGaussianBlur stdDeviation="5"/><feColorMatrix values="0 0 0 0 0.0885677 0 0 0 0 0.0395834 0 0 0 0 0.395833 0 0 0 0.25 0"/><feBlend in2="BackgroundImageFix" result="effect1_dropShadow"/><feBlend in="SourceGraphic" in2="effect1_dropShadow" result="shape"/></filter><filter id="filter3_d" x="358" y="165" width="68" height="68" filterUnits="userSpaceOnUse" color-interpolation-filters="sRGB"><feFlood flood-opacity="0" result="BackgroundImageFix"/><feColorMatrix in="SourceAlpha" values="0 0 0 0 0 0 0 0 0 0 0 0 0 0 0 0 0 0 127 0" result="hardAlpha"/><feOffset dy="4"/><feGaussianBlur stdDeviation="5"/><feColorMatrix values="0 0 0 0 0.0885677 0 0 0 0 0.0395834 0 0 0 0 0.395833 0 0 0 0.25 0"/><feBlend in2="BackgroundImageFix" result="effect1_dropShadow"/><feBlend in="SourceGraphic" in2="effect1_dropShadow" result="shape"/></filter></defs></svg>