<svg width="535" height="409" viewBox="0 0 535 409" fill="none" xmlns="http://www.w3.org/2000/svg"><path opacity=".04" d="M201.456 351.865c91.561 21.501 241.918-7.857 293.511-57.771 51.592-49.914.406-105.968-35.433-126.61-11.152-6.384-23.725-10.966-32.691-19.853-19.575-19.462-25.697-51.19-50.41-64.661-21.375-11.668-47.317.183-71.218-6.406-10.433-2.813-27.283-15.49-45.003-17.782-39.191-5.07-135.581 30.669-147.478 64.67-11.898 34.001-36.657 198.971 88.722 228.413z" fill="#276ED8"/><path opacity=".2" d="M356.75 196.692l12.25-2.305v-10.982l-12.25-2.112a36.219 36.219 0 00-5.184-12.48l7.027-10.311-7.776-7.776-10.157 7.181a36.031 36.031 0 00-12.48-5.165l-2.304-12.25h-10.983l-2.112 12.25a36.219 36.219 0 00-12.48 5.184l-10.291-7.027-7.776 7.776 7.181 10.157a36.184 36.184 0 00-5.165 12.48L272 183.616v10.983l12.25 2.112a36.066 36.066 0 005.184 12.48l-7.027 10.291 7.776 7.776 10.176-7.181a35.8 35.8 0 0012.48 5.165l2.304 12.25h10.983l2.112-12.25a36.047 36.047 0 0012.48-5.184l10.291 7.028 7.776-7.777-7.18-10.156a36.134 36.134 0 005.145-12.461zm-36.25 15.053c-12.557 0-22.733-10.196-22.733-22.734 0-12.537 10.176-22.733 22.733-22.733s22.733 10.176 22.733 22.733-10.176 22.734-22.733 22.734z" fill="#84B5FF"/><path d="M81.56 148.812v102.47c0 5.1 4.14 9.24 9.24 9.24h137.8c5.1 0 9.24-4.14 9.24-9.24v-102.47c0-5.1-4.14-9.24-9.24-9.24H90.79c-5.1.01-9.23 4.14-9.23 9.24zm147.17 106.97H165.2l-74.2-.29c-1.89 0-3.75-1.24-3.75-3.13v-104.63c0-1.89 1.53-3.42 3.42-3.42h138.06c1.89 0 3.42 1.53 3.42 3.42v104.63c0 1.89-1.53 3.42-3.42 3.42zm142.18 2.71c-11.55 0-20.91 9.36-20.91 20.91s9.36 20.91 20.91 20.91 20.91-9.36 20.91-20.91-9.36-20.91-20.91-20.91zm0 36.61c-8.68 0-15.71-7.03-15.71-15.71s7.03-15.71 15.71-15.71 15.71 7.03 15.71 15.71-7.03 15.71-15.71 15.71z" fill="#66D6A0"/><path d="M325.669 197.302v132.99c0 3.42-2.77 6.19-6.19 6.19h-202.8c-3.42 0-6.19-2.77-6.19-6.19v-132.99c0-7.89 6.4-14.3 14.3-14.3h186.58c7.9 0 14.3 6.41 14.3 14.3z" fill="#fff" stroke="#84B5FF" stroke-miterlimit="10"/><path d="M325.669 197.302v.6h-215.18v-.6c0-7.89 6.4-14.3 14.3-14.3h186.58c7.9 0 14.3 6.41 14.3 14.3z" fill="#84B5FF"/><path opacity=".1" d="M325.669 307.832v22.46c0 3.42-2.77 6.19-6.19 6.19h-202.8c-3.42 0-6.19-2.77-6.19-6.19v-22.46h215.18z" fill="#84B5FF"/><path d="M292.99 191.142c0 1.03-.83 1.86-1.86 1.86-1.03 0-1.86-.83-1.86-1.86 0-1.03.83-1.86 1.86-1.86 1.02 0 1.86.83 1.86 1.86zm10.179 0c0 1.03-.83 1.86-1.86 1.86-1.03 0-1.86-.83-1.86-1.86 0-1.03.83-1.86 1.86-1.86 1.02 0 1.86.83 1.86 1.86zm9.731 0c0 1.03-.83 1.86-1.86 1.86-1.03 0-1.86-.83-1.86-1.86 0-1.03.83-1.86 1.86-1.86 1.03 0 1.86.83 1.86 1.86z" fill="#84B5FF"/><path opacity=".1" d="M325.999 197.747v132.575c0 3.409-2.768 6.17-6.185 6.17h-202.63c-3.417 0-6.185-2.761-6.185-6.17V197.747c0-7.865 6.395-14.255 14.288-14.255h186.424c7.893 0 14.288 6.39 14.288 14.255z" stroke="#276ED8" stroke-miterlimit="10"/><g filter="url(#filter0_d)"><path d="M134.918 341.08l8.082-1.52v-7.246l-8.082-1.394a23.893 23.893 0 00-3.421-8.234l4.637-6.803-5.131-5.131-6.701 4.738a23.797 23.797 0 00-8.235-3.408l-1.52-8.082h-7.246l-1.394 8.082a23.893 23.893 0 00-8.234 3.421l-6.79-4.637-5.13 5.131 4.737 6.701a23.887 23.887 0 00-3.408 8.235L79 332.453v7.246l8.082 1.394a23.8 23.8 0 003.42 8.234l-4.636 6.79 5.13 5.131 6.715-4.738a23.639 23.639 0 008.234 3.408l1.521 8.082h7.246l1.393-8.082a23.801 23.801 0 008.235-3.421l6.79 4.637 5.13-5.131-4.737-6.701a23.855 23.855 0 003.395-8.222zM111 351.012c-8.285 0-15-6.727-15-14.999 0-8.273 6.715-15 15-15s14.999 6.715 14.999 15-6.714 14.999-14.999 14.999z" fill="#84B5FF"/></g><g filter="url(#filter1_d)"><path d="M47.687 280.322l5.857 2.053 2.737-4.726-4.758-3.961a18.084 18.084 0 00.875-6.666L58 264.333l-1.416-5.282-6.16.572a18.147 18.147 0 00-4.09-5.329l2.053-5.855-4.727-2.737-3.962 4.757a18.106 18.106 0 00-6.669-.875L30.34 244l-5.283 1.416.573 6.173a18.132 18.132 0 00-5.332 4.089l-5.857-2.053-2.737 4.726 4.759 3.961a18.088 18.088 0 00-.876 6.666L10 271.667l1.416 5.282 6.175-.572a17.88 17.88 0 004.09 5.329l-2.052 5.855 4.726 2.737 3.963-4.757a18.107 18.107 0 006.669.875l2.69 5.584 5.283-1.416-.573-6.173a17.633 17.633 0 005.3-4.089zm-19.369-2.529c-5.41-3.119-7.257-10.04-4.138-15.449 3.12-5.409 10.043-7.255 15.454-4.137 5.411 3.119 7.257 10.04 4.138 15.449-3.12 5.409-10.042 7.255-15.454 4.137z" fill="#276ED8"/></g><path fill="#66D6A0" d="M109 255.492h21v5h-21z"/><g filter="url(#filter2_d)"><rect x="129" y="224" width="138" height="61.64" rx="6" fill="#06B25F"/></g><path d="M176.396 266.739l-7.056-11.937 7.056-11.937 3.402 11.937-3.402 11.937zm-15.705-1.165l-8.866-8.843h14.113l7.057 11.937-12.304-3.094zm0-21.581l12.268-3.094-7.057 11.938h-14.113l8.902-8.844zm18.021-8.953l-16.031 4.185-2.388 4.113-4.812-.037-11.761 11.501 11.761 11.5 4.812-.036 2.388 4.112 16.031 4.222 4.306-15.686-2.424-4.076 2.424-4.076-4.306-15.722zm36.404 11.61c-2.135 0-3.583.909-4.668 2.584h-.072v-2.148h-3.764v15.795h3.836v-8.953c0-2.147 1.339-3.639 3.184-3.639 1.737 0 3.04 1.056 3.04 2.912v9.717h3.836v-10.336c.036-3.458-2.135-5.932-5.392-5.932zm-14.33 9.571c0 2.111-1.194 3.567-3.148 3.567-1.773 0-2.895-1.019-2.895-2.875v-9.827h-3.836v10.554c0 3.458 1.954 5.714 5.464 5.714 2.208 0 3.438-.837 4.488-2.292h.108v1.856h3.691v-15.832h-3.836v9.135h-.036zm21.785-9.135h3.835v15.795h-3.835v-15.795zm0-4.913h3.835v3.167h-3.835v-3.167zm25.583 4.913l-2.279 7.133c-.507 1.456-.905 3.458-.905 3.458h-.109s-.506-2.002-1.013-3.458l-2.569-7.133h-4.125l4.233 11.246c.905 2.402 1.195 3.421 1.195 4.294 0 1.31-.688 2.148-2.316 2.148h-1.484v3.311h2.461c3.184 0 4.306-1.273 5.5-4.767l5.537-16.195h-4.126v-.037zm-14.583 11.173v-8.37h2.461v-2.766h-2.461v-4.95h-3.835v4.913h-2.172v2.766h2.172v9.28c0 2.985 2.243 3.786 4.269 3.786 1.665 0 2.099-.073 2.099-.073v-3.057h-.977c-.905.036-1.556-.364-1.556-1.529z" fill="#fff"/><g filter="url(#filter3_d)"><rect x="205" y="89" width="65.68" height="64.547" rx="6" fill="#276ED8"/></g><path d="M252.253 115.875c-1.072-4.854-5.555-8.375-10.745-8.375-2.061 0-4.079.554-5.833 1.615-.748.452-1.435.988-2.047 1.596a8.158 8.158 0 00-1.788-.198 8.064 8.064 0 00-5.551 2.183 7.682 7.682 0 00-1.922 2.859 8.67 8.67 0 00-2.746 2.044l30.632-1.724zm0 0c2.416 1.385 4.063 3.868 4.233 6.74l-2.496.147 2.496-.147c.296 5.029-3.896 8.885-8.765 8.885h-19.535c-4.678 0-8.686-3.656-8.686-8.4 0-2.034.763-3.986 2.121-5.501l30.632-1.724z" stroke="#fff" stroke-width="5"/><path d="M81.772 92.976H53.988a1.987 1.987 0 110-3.976h27.784a1.987 1.987 0 110 3.976zm0 9.921H53.988a1.987 1.987 0 110-3.976h27.784a1.987 1.987 0 110 3.976z" fill="#66D6A0"/><defs><filter id="filter0_d" x="69" y="298" width="84" height="84" filterUnits="userSpaceOnUse" color-interpolation-filters="sRGB"><feFlood flood-opacity="0" result="BackgroundImageFix"/><feColorMatrix in="SourceAlpha" values="0 0 0 0 0 0 0 0 0 0 0 0 0 0 0 0 0 0 127 0" result="hardAlpha"/><feOffset dy="4"/><feGaussianBlur stdDeviation="5"/><feColorMatrix values="0 0 0 0 0.0885677 0 0 0 0 0.0395834 0 0 0 0 0.395833 0 0 0 0.25 0"/><feBlend in2="BackgroundImageFix" result="effect1_dropShadow"/><feBlend in="SourceGraphic" in2="effect1_dropShadow" result="shape"/></filter><filter id="filter1_d" x="0" y="238" width="68" height="68" filterUnits="userSpaceOnUse" color-interpolation-filters="sRGB"><feFlood flood-opacity="0" result="BackgroundImageFix"/><feColorMatrix in="SourceAlpha" values="0 0 0 0 0 0 0 0 0 0 0 0 0 0 0 0 0 0 127 0" result="hardAlpha"/><feOffset dy="4"/><feGaussianBlur stdDeviation="5"/><feColorMatrix values="0 0 0 0 0.0885677 0 0 0 0 0.0395834 0 0 0 0 0.395833 0 0 0 0.25 0"/><feBlend in2="BackgroundImageFix" result="effect1_dropShadow"/><feBlend in="SourceGraphic" in2="effect1_dropShadow" result="shape"/></filter><filter id="filter2_d" x="125" y="220" width="152" height="75.64" filterUnits="userSpaceOnUse" color-interpolation-filters="sRGB"><feFlood flood-opacity="0" result="BackgroundImageFix"/><feColorMatrix in="SourceAlpha" values="0 0 0 0 0 0 0 0 0 0 0 0 0 0 0 0 0 0 127 0" result="hardAlpha"/><feMorphology radius="1" operator="dilate" in="SourceAlpha" result="effect1_dropShadow"/><feOffset dx="3" dy="3"/><feGaussianBlur stdDeviation="3"/><feColorMatrix values="0 0 0 0 0 0 0 0 0 0 0 0 0 0 0 0 0 0 0.2 0"/><feBlend in2="BackgroundImageFix" result="effect1_dropShadow"/><feBlend in="SourceGraphic" in2="effect1_dropShadow" result="shape"/></filter><filter id="filter3_d" x="199" y="83" width="87.68" height="86.547" filterUnits="userSpaceOnUse" color-interpolation-filters="sRGB"><feFlood flood-opacity="0" result="BackgroundImageFix"/><feColorMatrix in="SourceAlpha" values="0 0 0 0 0 0 0 0 0 0 0 0 0 0 0 0 0 0 127 0" result="hardAlpha"/><feMorphology radius="3" operator="dilate" in="SourceAlpha" result="effect1_dropShadow"/><feOffset dx="5" dy="5"/><feGaussianBlur stdDeviation="4"/><feColorMatrix values="0 0 0 0 0 0 0 0 0 0 0 0 0 0 0 0 0 0 0.2 0"/><feBlend in2="BackgroundImageFix" result="effect1_dropShadow"/><feBlend in="SourceGraphic" in2="effect1_dropShadow" result="shape"/></filter></defs></svg>